<?xml version="1.0" encoding="UTF-8"?>
<svg version="1.1" xmlns="http://www.w3.org/2000/svg" viewBox="0,0,1000,1000">
<g transform="translate(-0.000000,0.000000)">
<path d="M 920.000000 -0.000000 Q 993.240051 6.760001 1000.000000 80.000000 L 1000.000000 920.000000 Q 993.240051 993.240051 920.000000 1000.000000 L 80.000000 1000.000000 Q 6.760001 993.239975 0.000000 920.000000 L 0.000000 80.000000 Q 6.760001 6.760001 80.000000 0.000000 L 920.000000 0.000000 " stroke="black" fill="transparent"/>
<path d="M 900.000000 800.000000 Q 945.774994 804.225006 950.000000 850.000000 L 950.000000 900.000000 Q 945.774994 945.774994 900.000000 950.000000 L 100.000000 950.000000 Q 54.224997 945.774994 50.000000 900.000000 L 50.000000 850.000000 Q 54.225001 804.225006 100.000000 800.000000 L 900.000000 800.000000 " stroke="black" fill="transparent"/>
<path d="M 760.000000 940.000000 L 580.000000 940.000000 L 580.000000 520.000000 L 500.000000 520.000000 L 500.000000 370.000000 L 580.000000 370.000000 L 580.000000 290.000000 C 580.000000 170.000000 630.000000 100.000000 770.000000 100.000000 L 890.000000 100.000000 L 890.000000 240.000000 L 820.000000 240.000000 C 760.000000 240.000000 760.000000 260.000000 760.000000 300.000000 L 760.000000 370.000000 L 890.000000 370.000000 L 870.000000 520.000000 L 760.000000 520.000000 L 760.000000 940.000000 L 760.000000 940.000000 " stroke="black" fill="transparent"/>
</g>
</svg>
