<?xml version="1.0" standalone="no"?>
<!DOCTYPE svg PUBLIC "-//W3C//DTD SVG 20010904//EN"
 "http://www.w3.org/TR/2001/REC-SVG-20010904/DTD/svg10.dtd">
<svg version="1.0" xmlns="http://www.w3.org/2000/svg"
 width="1115.000000pt" height="1280.000000pt" viewBox="0 0 1115.000000 1280.000000"
 preserveAspectRatio="xMidYMid meet">
<g transform="translate(0.000000,1280.000000) scale(1.00000,-1.000000)"
fill="#000000" stroke="none">
<path d="m 659 595 q 60 0 90 -4 59 -8 99 -32 47 -28 92 -89 18 -24 66 -100 5 -8 22 -27 11 -12 11 -26 0 -4 11 -6.5 11 -2.5 13 -6.5 2 -6 -18.5 -18 -20.5 -12 -20.5 -18 50 0 123 24 l 12 4 q -5 -26 -83 -47 -26 -7 -77 -16 0 -2 -35 -17 -5 -2 -16 -7 7 -13 15 -25 25 -7 34 -12 26 -15 26 -52 l -1 -15 q 1 -8 2 -15 -7 -7 -9 -10 V 68 q -11 -2 -14 -5 -3 -10 -6 -12 -9 2 -13 1 l -7 -7 q -3 2 -5.5 4 -2.5 2 -5.5 3 -28 8 -58 51 -9 14 -33 55 -2 -2 -10 -2 h -12 q -7 0 -9 -2 Q 832 102 829 81 822 44 814 25 806 15 782.5 10.5 759 6 733 6 716 6 711 7.5 706 9 700.5 10 q -5.5 1 -8 3.5 -2.5 2.5 -1.5 6 1 3.5 0 5.5 -8 2 -15 5 v 13 q -2 2 -4 2.5 l -6 1.5 8 8 -4 10 q 3 2 26.5 5 23.5 3 25.5 6.5 2 3.5 5 20.5 3 17 6.5 26.5 3.5 9.5 3.5 15.5 0 2 -2.5 3 -2.5 1 -7.5 -2 -6 2 -13 4 -7 2 -15 2 -37 0 -83 -2 -46 -2 -85 -4 3 -10 16 -61 8 -30 8 -43 0 -22 -24 -32 -24 -10 -54 -10 -15 0 -42 5 -9 1 -24 5 l 7 11 -12 4 4 10 -10 4 q 0 2 3 4.5 3 2.5 4 3.5 -3 2 -4 2 -5 3 -5 5 0 3 6 7 28 17 32.5 21 4.5 4 4.5 14 0 11 -8.5 33 -8.5 22 -9.5 29 -5 0 -17.5 2.5 -12.5 2.5 -14.5 2.5 -4 0 -13 -3.5 -9 -3.5 -32 -20.5 -63 -46 -83 -57 -8 -4 -19 -15 -7 -7 -11 -9 -3 3 -6 12.5 -3 9.5 -5 12 -2 2.5 -11 2.5 h -10 q -1 6 -1 8 -3 8 -8 10 -12 -1 -17 -1 -4 0 -3 8.5 1 8.5 0 11 -1 2.5 -7.5 4 -6.5 1.5 -9.5 3.5 24 12 44 16 20 4 40.5 8 20.5 4 34 9.5 13.5 5.5 23.5 8.5 10 3 22 6 -12 9 -44 21 -10 4 -53 17 L 92 245 q -65 25 -73 75 -3 20 25 43.5 28 23.5 48 23.5 50 0 120 -38 53 -29 75 -37 l -27 42 q 34 11 49 18 24 11 40 26 55 63 111 127 75 70 199 70 z"/>
</g>
</svg>
