<?xml version="1.0" encoding="UTF-8"?>
<svg version="1.1" xmlns="http://www.w3.org/2000/svg" viewBox="0,0,1000,1000">
<g transform="translate(40.000000,-0.000000)">
<path d="M 620.000000 0.000000 C 640.000000 100.000000 530.000000 240.000000 420.000000 240.000000 C 390.000000 100.000000 510.000000 20.000000 620.000000 0.000000 " stroke="black" fill="transparent"/>
<path d="M 50.000000 360.000000 C 100.000000 280.000000 180.000000 240.000000 255.000000 240.000000 C 330.000000 240.000000 380.000000 280.000000 445.000000 280.000000 C 510.000000 280.000000 550.000000 240.000000 625.000000 240.000000 C 700.000000 240.000000 780.000000 270.000000 830.000000 340.000000 C 670.000000 380.000000 680.000000 690.000000 860.000000 730.000000 C 790.000000 900.000000 680.000000 1000.000000 615.000000 1000.000000 C 550.000000 1000.000000 540.000000 950.000000 450.000000 950.000000 C 360.000000 950.000000 340.000000 1000.000000 275.000000 995.000000 C 210.000000 990.000000 150.000000 930.000000 110.000000 870.000000 C 20.000000 770.000000 -40.000000 470.000000 50.000000 360.000000 " stroke="black" fill="transparent"/>
</g>
</svg>
