<?xml version="1.0" encoding="UTF-8" standalone="no"?>
<!-- Created with Inkscape (http://www.inkscape.org/) -->
<svg id="svg2" xmlns:rdf="http://www.w3.org/1999/02/22-rdf-syntax-ns#" xmlns="http://www.w3.org/2000/svg" height="297mm" width="210mm" version="1.1" xmlns:cc="http://creativecommons.org/ns#" xmlns:dc="http://purl.org/dc/elements/1.1/" viewBox="0 0 744.09448819 1052.3622047">
 <defs>
  <clipPath id="clipPath1" clipPathUnits="userSpaceOnUse">
   <path id="path3444" d="m0 0h560v420h-560v-420z"/>
  </clipPath>
 </defs>
 <metadata id="metadata7">
  <rdf:RDF>
   <cc:Work rdf:about="">
    <dc:format>image/svg+xml</dc:format>
    <dc:type rdf:resource="http://purl.org/dc/dcmitype/StillImage"/>
    <dc:title/>
   </cc:Work>
  </rdf:RDF>
 </metadata>
 <g id="layer1">
  <g id="layer1-1" transform="translate(-2.8572 -21.429)">
   <g id="g3468" style="color-interpolation:auto;image-rendering:auto;text-rendering:auto;color-rendering:auto;shape-rendering:auto" font-family="Dialog" transform="matrix(1.3367 0 0 1.4422 -2.8571 208.08)" stroke="#000" stroke-linecap="square" stroke-miterlimit="10" font-size="12px">
    <g id="g3440">
     <g id="g3446" stroke="#fff" fill="#fff">
      <rect id="rect3448" clip-path="url(#clipPath1)" height="420" width="560" y="0" x="0"/>
     </g>
     <g id="g3450" style="color-interpolation:sRGB;image-rendering:optimizeSpeed;color-rendering:optimizeSpeed;shape-rendering:crispEdges" stroke="#fff" fill="#fff">
      <rect id="rect3452" height="420" width="560" y="0" x="0"/>
     </g>
     <g id="g3454" stroke-linejoin="round" style="color-interpolation:linearRGB;color-rendering:optimizeQuality;image-rendering:optimizeQuality" stroke="#0072bd" stroke-linecap="butt" stroke-width=".5" fill="none">
<!--
      <path id="path3456" d="m503.16 204.75-28.42-99.37-77.66-72.752-106.08-26.628-106.08 26.628l-77.657 72.748-28.424 99.375 28.424 99.375 77.657 72.748 106.08 26.62 106.08-26.63 77.66-72.75"/>
-->
      <path id="path3458" stroke="#d95319" d="m503.16 204.75-28.42-99.37-77.66-72.752-106.08-26.628-106.08 26.628l-77.657 72.748-28.424 99.375 28.424 99.375 77.657 72.748 106.08 26.62 106.08-26.63 77.66-72.75 28.42-99.37"/>
     </g>
    </g>
   </g>
  </g>
 </g>
</svg>
