<?xml version="1.0" encoding="UTF-8" standalone="no"?>
<svg
   xmlns:dc="http://purl.org/dc/elements/1.1/"
   xmlns:cc="http://creativecommons.org/ns#"
   xmlns:rdf="http://www.w3.org/1999/02/22-rdf-syntax-ns#"
   xmlns:svg="http://www.w3.org/2000/svg"
   xmlns="http://www.w3.org/2000/svg"
   version="1.1"
   id="svg2"
   viewBox="0 0 744.09448819 1052.3622047"
   height="297mm"
   width="210mm">
  <defs
     id="defs4" />
  <metadata
     id="metadata7">
    <rdf:RDF>
      <cc:Work
         rdf:about="">
        <dc:format>image/svg+xml</dc:format>
        <dc:type
           rdf:resource="http://purl.org/dc/dcmitype/StillImage" />
        <dc:title></dc:title>
      </cc:Work>
    </rdf:RDF>
  </metadata>
  <g
     id="layer1">
    <g
       style="fill:#000000;stroke:none"
       transform="matrix(1.25,0,0,-1.25,-363.84027,920.77072)"
       id="g4188">
      <path
         d="m 643.88788,561.983 c 68.22438,-0.31406 96.12435,-35.71579 112.65219,-56.07748 16.52776,-20.36168 33.71815,-45.85099 41.98471,-59.20315 8.26664,-13.35218 5.37679,-12.75476 5.37679,-12.75476 2.77915,-5.69262 10.78291,-5.84711 12.76034,-9.47625 0.6517,-1.96226 -2.36255,-4.90566 -9.04275,-8.83021 -6.68019,-3.92453 -10.02033,-6.86794 -10.02033,-8.83021 16.29316,0 46.04449,9.85771 59.03019,13.96486 12.98571,4.10714 17.46465,10.39624 17.76408,4.67758 -19.31897,-24.48492 -57.78326,-30.51438 -84.4656,-35.26449 -10.67531,-2.22367 -20.58408,-8.27228 -29.47707,-12.32142 2.28099,-4.25159 1.62972,-8.9692 7.33189,-12.26418 5.70218,-3.29498 9.15009,-0.068 16.61906,-5.88681 7.46889,-5.81892 12.50049,-24.87329 12.21986,-32.868 -0.28054,-7.99472 0.6517,-5.06919 0.97759,-7.35852 -2.28108,-2.28931 -3.74742,-3.92453 -4.39912,-4.90566 l 0,-5.88681 c -3.58447,-0.65409 -5.86555,-1.47171 -6.84315,-2.45284 -0.97758,-3.27044 -1.95518,-5.23271 -2.93276,-5.8868 -2.93278,0.65409 -5.05091,0.81762 -6.3544,0.49056 l -3.42153,-3.43397 c -0.97758,0.65409 -1.87371,1.30819 -2.68835,1.96227 -0.81465,0.6541 -1.71076,1.14466 -2.68836,1.4717 -20.39225,12.22846 -33.62237,33.39576 -44.48046,52.00014 -4.06202,0.23522 -12.58134,0.19507 -15.15261,-1.96228 -6.6976,-18.61398 -3.5093,-52.34001 -13.68627,-63.28316 -7.93228,-8.13446 -34.03625,-11.32991 -50.34593,-8.58494 -7.09003,1.38435 -6.77117,0.74019 -9.04272,2.94341 -0.81465,0.8176 -1.05905,1.79875 -0.73319,2.9434 0.32587,1.14466 0.32587,2.04403 0,2.69813 -2.60691,0.65408 -5.05088,1.47169 -7.33193,2.45283 l 0,6.37737 c -0.65172,0.6541 -1.30346,1.06289 -1.95518,1.22642 l -2.93277,0.73586 3.91035,3.92453 -1.95518,4.90566 c 6.47259,4.30931 20.78519,1.35398 23.96182,4.91113 3.17663,3.55713 4.55943,4.49685 7.35645,9.87401 2.79703,5.37716 1.45211,11.04163 2.26745,13.73046 0.81533,2.6888 0.80359,8.06443 -2.05841,9.25808 -11.65674,1.56057 -34.04197,2.00657 -57.92226,0.98115 -14.98972,-0.6541 -28.83892,-1.30818 -41.5476,-1.96228 3.39576,-17.8394 13.21288,-33.23701 11.73108,-51.01898 -1.48178,-17.782 -24.84064,-20.9936 -38.12604,-20.60383 -10.84623,0.40674 -21.9472,2.16406 -32.26049,4.90566 l 3.42157,5.39625 -5.86555,1.96227 1.95519,4.90566 -4.88797,1.96228 c 0,0.65409 0.48881,1.38994 1.46639,2.20755 0.9776,0.81761 1.62932,1.38994 1.95519,1.71698 -0.97759,0.65409 -1.62932,0.98114 -1.95519,0.98114 -1.62931,0.98113 -2.44396,1.79875 -2.44396,2.45284 6.94056,6.64157 16.40763,9.58116 21.72971,15.74451 3.9251,4.72336 -4.36851,27.21522 -9.50984,35.27448 -6.01721,1.70292 -10.76824,2.39085 -16.92798,1.67811 -31.35754,-9.31187 -55.89768,-29.99833 -75.94314,-50.73484 -0.97759,0.98113 -1.95518,3.02518 -2.93278,6.13209 -0.97758,3.10693 -1.79224,5.06921 -2.44397,5.88681 -0.65172,0.81762 -2.44398,1.22642 -5.37675,1.22642 l -4.88795,0 c -0.32586,1.96228 -0.48879,3.27045 -0.48879,3.92454 -0.9776,2.61636 -2.28106,4.25158 -3.91038,4.90568 -3.91036,-0.32706 -6.6802,-0.49059 -8.30951,-0.49059 -1.30347,0 -1.79225,1.38994 -1.46639,4.16983 0.32586,2.77988 0.32586,4.57863 0,5.39624 -0.32586,0.81761 -1.54786,1.4717 -3.66597,1.96227 -2.11811,0.49056 -3.66596,1.0629 -4.64355,1.71699 17.80195,10.2214 44.3742,11.00286 57.92226,16.43399 13.54804,5.43115 15.27852,5.36094 22.24018,7.11323 -3.91036,2.94341 -11.09986,6.32292 -21.50699,10.30191 -28.81428,11.23507 -57.72458,14.97274 -86.36188,25.4836 -10.59056,4.08806 -36.97747,25.86234 -38.76974,37.30902 -0.15052,18.40283 23.17596,32.70276 35.68205,32.868 11.40524,0 38.61481,-7.68554 58.65546,-18.64155 20.04064,-10.95601 29.49065,-15.53464 36.65965,-18.151 0,0 -18.73716,18.80509 -13.19747,20.60384 14.36629,5.01988 33.77901,11.14617 43.50278,21.58495 58.2798,77.36961 108.00156,91.7124 176.22593,91.39832 z"
         id="path4190" />
    </g>
  </g>
</svg>
